<svg width="256" height="256" viewBox="0 0 256 256" xmlns="http://www.w3.org/2000/svg"><g fill="none" fill-rule="evenodd"><rect fill="#1A2C34" width="256" height="256"/><rect fill="#56B3B4" fill-rule="nonzero" x="178" y="63" width="20" height="10" rx="2.86"/><rect fill="#EA5E5E" fill-rule="nonzero" x="28" y="223" width="60" height="10" rx="2.86"/><rect fill="#BF85BF" fill-rule="nonzero" x="148" y="143" width="40" height="10" rx="2.86"/><rect fill="#EA5E5E" fill-rule="nonzero" x="88" y="143" width="50" height="10" rx="2.86"/><rect fill="#56B3B4" fill-rule="nonzero" x="28" y="143" width="50" height="10" rx="2.86"/><rect fill="#BF85BF" fill-rule="nonzero" x="28" y="183" width="60" height="10" rx="2.86"/><rect fill="#BF85BF" fill-rule="nonzero" x="28" y="103" width="60" height="10" rx="2.86"/><rect fill="#F7BA3E" fill-rule="nonzero" x="78" y="43" width="110" height="10" rx="2.86"/><rect fill="#EA5E5E" fill-rule="nonzero" x="28" y="43" width="40" height="10" rx="2.86"/><rect fill="#F7BA3E" fill-rule="nonzero" x="68" y="203" width="20" height="10" rx="2.86"/><rect fill="#56B3B4" fill-rule="nonzero" x="68" y="83" width="20" height="10" rx="2.86"/><rect fill="#56B3B4" fill-rule="nonzero" x="28" y="203" width="30" height="10" rx="2.86"/><rect fill="#F7BA3E" fill-rule="nonzero" x="28" y="83" width="30" height="10" rx="2.86"/><rect fill="#4D616E" fill-rule="nonzero" opacity=".5" x="158" y="203" width="20" height="10" rx="2.86"/><rect fill="#4D616E" fill-rule="nonzero" opacity=".5" x="98" y="203" width="50" height="10" rx="2.86"/><rect fill="#4D616E" fill-rule="nonzero" opacity=".5" x="188" y="203" width="50" height="10" rx="2.86"/><rect fill="#56B3B4" fill-rule="nonzero" x="108" y="123" width="90" height="10" rx="2.86"/><rect fill="#F7BA3E" fill-rule="nonzero" x="58" y="123" width="40" height="10" rx="2.86"/><rect fill="#EA5E5E" fill-rule="nonzero" x="28" y="123" width="20" height="10" rx="2.86"/><rect fill="#BF85BF" fill-rule="nonzero" x="118" y="63" width="50" height="10" rx="2.86"/><rect fill="#56B3B4" fill-rule="nonzero" x="28" y="63" width="80" height="10" rx="2.86"/><rect fill="#F7BA3E" fill-rule="nonzero" x="58" y="163" width="100" height="10" rx="2.86"/><rect fill="#BF85BF" fill-rule="nonzero" x="28" y="163" width="20" height="10" rx="2.86"/><rect fill="#EA5E5E" fill-rule="nonzero" x="148" y="83" width="60" height="10" rx="2.86"/><rect fill="#F7BA3E" fill-rule="nonzero" x="148" y="103" width="60" height="10" rx="2.86"/><rect fill="#56B3B4" fill-rule="nonzero" x="28" y="23" width="130" height="10" rx="2.86"/><rect fill="#4D616E" fill-rule="nonzero" opacity=".5" x="168" y="23" width="70" height="10" rx="2.86"/><rect fill="#4D616E" fill-rule="nonzero" opacity=".5" x="168" y="163" width="30" height="10" rx="2.86"/><rect fill="#4D616E" fill-rule="nonzero" opacity=".5" x="208" y="163" width="30" height="10" rx="2.86"/><rect fill="#4D616E" fill-rule="nonzero" opacity=".5" x="198" y="143" width="40" height="10" rx="2.86"/><rect fill="#4D616E" fill-rule="nonzero" opacity=".5" x="198" y="43" width="40" height="10" rx="2.86"/><rect fill="#4D616E" fill-rule="nonzero" opacity=".5" x="208" y="123" width="30" height="10" rx="2.86"/><rect fill="#4D616E" fill-rule="nonzero" opacity=".5" x="208" y="63" width="30" height="10" rx="2.86"/><rect fill="#4D616E" fill-rule="nonzero" opacity=".5" x="218" y="83" width="20" height="10" rx="2.86"/><rect fill="#4D616E" fill-rule="nonzero" opacity=".5" x="218" y="103" width="20" height="10" rx="2.86"/><rect fill="#4D616E" fill-rule="nonzero" opacity=".5" x="138" y="183" width="100" height="10" rx="2.86"/><rect fill="#4D616E" fill-rule="nonzero" opacity=".5" x="98" y="183" width="30" height="10" rx="2.86"/><rect fill="#4D616E" fill-rule="nonzero" opacity=".5" x="178" y="223" width="60" height="10" rx="2.86"/><rect fill="#4D616E" fill-rule="nonzero" opacity=".5" x="98" y="223" width="70" height="10" rx="2.86"/><rect fill="#4D616E" fill-rule="nonzero" opacity=".5" x="98" y="83" width="40" height="10" rx="2.86"/><rect fill="#4D616E" fill-rule="nonzero" opacity=".5" x="98" y="103" width="40" height="10" rx="2.86"/></g></svg>